<svg id="visual" viewBox="0 0 900 600" width="900" height="600" xmlns="http://www.w3.org/2000/svg" xmlns:xlink="http://www.w3.org/1999/xlink" version="1.1"><rect x="0" y="0" width="900" height="600" fill="#222233"></rect><path d="M0 365L21.5 351.2C43 337.3 86 309.7 128.8 293.2C171.7 276.7 214.3 271.3 257.2 276.2C300 281 343 296 385.8 312C428.7 328 471.3 345 514.2 350.2C557 355.3 600 348.7 642.8 351C685.7 353.3 728.3 364.7 771.2 369.3C814 374 857 372 878.5 371L900 370L900 601L878.5 601C857 601 814 601 771.2 601C728.3 601 685.7 601 642.8 601C600 601 557 601 514.2 601C471.3 601 428.7 601 385.8 601C343 601 300 601 257.2 601C214.3 601 171.7 601 128.8 601C86 601 43 601 21.5 601L0 601Z" fill="#ffdd09"></path><path d="M0 348L21.5 343C43 338 86 328 128.8 325.5C171.7 323 214.3 328 257.2 342.3C300 356.7 343 380.3 385.8 385.8C428.7 391.3 471.3 378.7 514.2 382C557 385.3 600 404.7 642.8 407.2C685.7 409.7 728.3 395.3 771.2 391.7C814 388 857 395 878.5 398.5L900 402L900 601L878.5 601C857 601 814 601 771.2 601C728.3 601 685.7 601 642.8 601C600 601 557 601 514.2 601C471.3 601 428.7 601 385.8 601C343 601 300 601 257.2 601C214.3 601 171.7 601 128.8 601C86 601 43 601 21.5 601L0 601Z" fill="#ffcb00"></path><path d="M0 394L21.5 399.2C43 404.3 86 414.7 128.8 411.3C171.7 408 214.3 391 257.2 390.3C300 389.7 343 405.3 385.8 408.8C428.7 412.3 471.3 403.7 514.2 401.8C557 400 600 405 642.8 412.8C685.7 420.7 728.3 431.3 771.2 429.5C814 427.7 857 413.3 878.5 406.2L900 399L900 601L878.5 601C857 601 814 601 771.2 601C728.3 601 685.7 601 642.8 601C600 601 557 601 514.2 601C471.3 601 428.7 601 385.8 601C343 601 300 601 257.2 601C214.3 601 171.7 601 128.8 601C86 601 43 601 21.5 601L0 601Z" fill="#ffba00"></path><path d="M0 437L21.5 447.3C43 457.7 86 478.3 128.8 481C171.7 483.7 214.3 468.3 257.2 460.7C300 453 343 453 385.8 460.5C428.7 468 471.3 483 514.2 491.2C557 499.3 600 500.7 642.8 493.2C685.7 485.7 728.3 469.3 771.2 465.3C814 461.3 857 469.7 878.5 473.8L900 478L900 601L878.5 601C857 601 814 601 771.2 601C728.3 601 685.7 601 642.8 601C600 601 557 601 514.2 601C471.3 601 428.7 601 385.8 601C343 601 300 601 257.2 601C214.3 601 171.7 601 128.8 601C86 601 43 601 21.5 601L0 601Z" fill="#ffa900"></path><path d="M0 548L21.5 543C43 538 86 528 128.8 522.7C171.7 517.3 214.3 516.7 257.2 521.2C300 525.7 343 535.3 385.8 533.2C428.7 531 471.3 517 514.2 518.7C557 520.3 600 537.7 642.8 544.2C685.7 550.7 728.3 546.3 771.2 542C814 537.7 857 533.3 878.5 531.2L900 529L900 601L878.5 601C857 601 814 601 771.2 601C728.3 601 685.7 601 642.8 601C600 601 557 601 514.2 601C471.3 601 428.7 601 385.8 601C343 601 300 601 257.2 601C214.3 601 171.7 601 128.8 601C86 601 43 601 21.5 601L0 601Z" fill="#fd9808"></path></svg>