<svg id="visual" viewBox="0 0 900 600" width="900" height="600" xmlns="http://www.w3.org/2000/svg" xmlns:xlink="http://www.w3.org/1999/xlink" version="1.1"><rect x="0" y="0" width="900" height="600" fill="#252e38"></rect><path d="M352 0L372.8 14.3C393.7 28.7 435.3 57.3 460 85.8C484.7 114.3 492.3 142.7 485 171.2C477.7 199.7 455.3 228.3 431.3 257C407.3 285.7 381.7 314.3 373.8 343C366 371.7 376 400.3 372.5 428.8C369 457.3 352 485.7 345 514.2C338 542.7 341 571.3 342.5 585.7L344 600L0 600L0 585.7C0 571.3 0 542.7 0 514.2C0 485.7 0 457.3 0 428.8C0 400.3 0 371.7 0 343C0 314.3 0 285.7 0 257C0 228.3 0 199.7 0 171.2C0 142.7 0 114.3 0 85.8C0 57.3 0 28.7 0 14.3L0 0Z" fill="#ffdd09"></path><path d="M377 0L384.7 14.3C392.3 28.7 407.7 57.3 411.5 85.8C415.3 114.3 407.7 142.7 386 171.2C364.3 199.7 328.7 228.3 320.3 257C312 285.7 331 314.3 326 343C321 371.7 292 400.3 288.5 428.8C285 457.3 307 485.7 312.5 514.2C318 542.7 307 571.3 301.5 585.7L296 600L0 600L0 585.7C0 571.3 0 542.7 0 514.2C0 485.7 0 457.3 0 428.8C0 400.3 0 371.7 0 343C0 314.3 0 285.7 0 257C0 228.3 0 199.7 0 171.2C0 142.7 0 114.3 0 85.8C0 57.3 0 28.7 0 14.3L0 0Z" fill="#ffcb00"></path><path d="M309 0L301.2 14.3C293.3 28.7 277.7 57.3 282.5 85.8C287.3 114.3 312.7 142.7 313.7 171.2C314.7 199.7 291.3 228.3 286.2 257C281 285.7 294 314.3 296.8 343C299.7 371.7 292.3 400.3 280.7 428.8C269 457.3 253 485.7 255.7 514.2C258.3 542.7 279.7 571.3 290.3 585.7L301 600L0 600L0 585.7C0 571.3 0 542.7 0 514.2C0 485.7 0 457.3 0 428.8C0 400.3 0 371.7 0 343C0 314.3 0 285.7 0 257C0 228.3 0 199.7 0 171.2C0 142.7 0 114.3 0 85.8C0 57.3 0 28.7 0 14.3L0 0Z" fill="#ffba00"></path><path d="M243 0L227.7 14.3C212.3 28.7 181.7 57.3 177.7 85.8C173.7 114.3 196.3 142.7 207.8 171.2C219.3 199.7 219.7 228.3 208.5 257C197.3 285.7 174.7 314.3 162.5 343C150.3 371.7 148.7 400.3 160 428.8C171.3 457.3 195.7 485.7 201.5 514.2C207.3 542.7 194.7 571.3 188.3 585.7L182 600L0 600L0 585.7C0 571.3 0 542.7 0 514.2C0 485.7 0 457.3 0 428.8C0 400.3 0 371.7 0 343C0 314.3 0 285.7 0 257C0 228.3 0 199.7 0 171.2C0 142.7 0 114.3 0 85.8C0 57.3 0 28.7 0 14.3L0 0Z" fill="#ffa900"></path><path d="M77 0L84.5 14.3C92 28.7 107 57.3 115 85.8C123 114.3 124 142.7 117.3 171.2C110.7 199.7 96.3 228.3 99.7 257C103 285.7 124 314.3 121.3 343C118.7 371.7 92.3 400.3 82.5 428.8C72.7 457.3 79.3 485.7 85.8 514.2C92.3 542.7 98.7 571.3 101.8 585.7L105 600L0 600L0 585.7C0 571.3 0 542.7 0 514.2C0 485.7 0 457.3 0 428.8C0 400.3 0 371.7 0 343C0 314.3 0 285.7 0 257C0 228.3 0 199.7 0 171.2C0 142.7 0 114.3 0 85.8C0 57.3 0 28.7 0 14.3L0 0Z" fill="#fd9808"></path></svg>