<svg id="visual" viewBox="0 0 900 600" width="900" height="600" xmlns="http://www.w3.org/2000/svg" xmlns:xlink="http://www.w3.org/1999/xlink" version="1.1"><rect x="0" y="0" width="900" height="600" fill="#fd9808"></rect><path d="M0 69L64 69L64 130L129 130L129 55L193 55L193 90L257 90L257 100L321 100L321 78L386 78L386 53L450 53L450 44L514 44L514 78L579 78L579 51L643 51L643 103L707 103L707 123L771 123L771 77L836 77L836 52L900 52L900 47L900 601L900 601L836 601L836 601L771 601L771 601L707 601L707 601L643 601L643 601L579 601L579 601L514 601L514 601L450 601L450 601L386 601L386 601L321 601L321 601L257 601L257 601L193 601L193 601L129 601L129 601L64 601L64 601L0 601Z" fill="#fd9808"></path><path d="M0 154L64 154L64 99L129 99L129 101L193 101L193 181L257 181L257 103L321 103L321 113L386 113L386 117L450 117L450 123L514 123L514 185L579 185L579 187L643 187L643 130L707 130L707 147L771 147L771 116L836 116L836 100L900 100L900 135L900 601L900 601L836 601L836 601L771 601L771 601L707 601L707 601L643 601L643 601L579 601L579 601L514 601L514 601L450 601L450 601L386 601L386 601L321 601L321 601L257 601L257 601L193 601L193 601L129 601L129 601L64 601L64 601L0 601Z" fill="#fea103"></path><path d="M0 155L64 155L64 197L129 197L129 197L193 197L193 171L257 171L257 156L321 156L321 219L386 219L386 194L450 194L450 154L514 154L514 198L579 198L579 186L643 186L643 231L707 231L707 222L771 222L771 186L836 186L836 192L900 192L900 205L900 601L900 601L836 601L836 601L771 601L771 601L707 601L707 601L643 601L643 601L579 601L579 601L514 601L514 601L450 601L450 601L386 601L386 601L321 601L321 601L257 601L257 601L193 601L193 601L129 601L129 601L64 601L64 601L0 601Z" fill="#ffa900"></path><path d="M0 237L64 237L64 210L129 210L129 273L193 273L193 217L257 217L257 211L321 211L321 267L386 267L386 251L450 251L450 293L514 293L514 285L579 285L579 265L643 265L643 222L707 222L707 254L771 254L771 271L836 271L836 217L900 217L900 243L900 601L900 601L836 601L836 601L771 601L771 601L707 601L707 601L643 601L643 601L579 601L579 601L514 601L514 601L450 601L450 601L386 601L386 601L321 601L321 601L257 601L257 601L193 601L193 601L129 601L129 601L64 601L64 601L0 601Z" fill="#ffb200"></path><path d="M0 285L64 285L64 353L129 353L129 306L193 306L193 337L257 337L257 310L321 310L321 325L386 325L386 336L450 336L450 303L514 303L514 273L579 273L579 282L643 282L643 346L707 346L707 329L771 329L771 281L836 281L836 325L900 325L900 314L900 601L900 601L836 601L836 601L771 601L771 601L707 601L707 601L643 601L643 601L579 601L579 601L514 601L514 601L450 601L450 601L386 601L386 601L321 601L321 601L257 601L257 601L193 601L193 601L129 601L129 601L64 601L64 601L0 601Z" fill="#ffba00"></path><path d="M0 398L64 398L64 378L129 378L129 351L193 351L193 360L257 360L257 333L321 333L321 343L386 343L386 388L450 388L450 358L514 358L514 374L579 374L579 371L643 371L643 360L707 360L707 362L771 362L771 374L836 374L836 408L900 408L900 364L900 601L900 601L836 601L836 601L771 601L771 601L707 601L707 601L643 601L643 601L579 601L579 601L514 601L514 601L450 601L450 601L386 601L386 601L321 601L321 601L257 601L257 601L193 601L193 601L129 601L129 601L64 601L64 601L0 601Z" fill="#ffc300"></path><path d="M0 432L64 432L64 434L129 434L129 399L193 399L193 406L257 406L257 401L321 401L321 393L386 393L386 393L450 393L450 438L514 438L514 430L579 430L579 407L643 407L643 393L707 393L707 456L771 456L771 458L836 458L836 455L900 455L900 416L900 601L900 601L836 601L836 601L771 601L771 601L707 601L707 601L643 601L643 601L579 601L579 601L514 601L514 601L450 601L450 601L386 601L386 601L321 601L321 601L257 601L257 601L193 601L193 601L129 601L129 601L64 601L64 601L0 601Z" fill="#ffcb00"></path><path d="M0 453L64 453L64 504L129 504L129 448L193 448L193 488L257 488L257 456L321 456L321 458L386 458L386 506L450 506L450 516L514 516L514 483L579 483L579 458L643 458L643 505L707 505L707 484L771 484L771 511L836 511L836 516L900 516L900 472L900 601L900 601L836 601L836 601L771 601L771 601L707 601L707 601L643 601L643 601L579 601L579 601L514 601L514 601L450 601L450 601L386 601L386 601L321 601L321 601L257 601L257 601L193 601L193 601L129 601L129 601L64 601L64 601L0 601Z" fill="#ffd402"></path><path d="M0 556L64 556L64 513L129 513L129 554L193 554L193 548L257 548L257 518L321 518L321 513L386 513L386 571L450 571L450 539L514 539L514 571L579 571L579 551L643 551L643 511L707 511L707 531L771 531L771 529L836 529L836 523L900 523L900 554L900 601L900 601L836 601L836 601L771 601L771 601L707 601L707 601L643 601L643 601L579 601L579 601L514 601L514 601L450 601L450 601L386 601L386 601L321 601L321 601L257 601L257 601L193 601L193 601L129 601L129 601L64 601L64 601L0 601Z" fill="#ffdd09"></path></svg>