<svg id="visual" viewBox="0 0 900 600" width="900" height="600" xmlns="http://www.w3.org/2000/svg" xmlns:xlink="http://www.w3.org/1999/xlink" version="1.1"><g stroke-width="1" stroke-linejoin="bevel"><path d="M384 252L523 176L337 185Z" fill="#ffd603" stroke="#ffd603"></path><path d="M523 176L382 0L337 185Z" fill="#ffd603" stroke="#ffd603"></path><path d="M523 176L551 0L382 0Z" fill="#ffac00" stroke="#ffac00"></path><path d="M384 252L587 349L523 176Z" fill="#ffc100" stroke="#ffc100"></path><path d="M523 176L680 132L551 0Z" fill="#ffc800" stroke="#ffc800"></path><path d="M587 349L680 132L523 176Z" fill="#fd9808" stroke="#fd9808"></path><path d="M382 0L181 106L337 185Z" fill="#fe9f04" stroke="#fe9f04"></path><path d="M337 185L129 297L384 252Z" fill="#ffb300" stroke="#ffb300"></path><path d="M181 106L129 297L337 185Z" fill="#ffcf00" stroke="#ffcf00"></path><path d="M365 494L568 466L587 349Z" fill="#ffac00" stroke="#ffac00"></path><path d="M365 494L587 349L384 252Z" fill="#fe9f04" stroke="#fe9f04"></path><path d="M587 349L719 339L680 132Z" fill="#fe9f04" stroke="#fe9f04"></path><path d="M129 297L365 494L384 252Z" fill="#ffc100" stroke="#ffc100"></path><path d="M693 448L719 339L587 349Z" fill="#ffb300" stroke="#ffb300"></path><path d="M382 0L136 0L181 106Z" fill="#ffb300" stroke="#ffb300"></path><path d="M181 106L0 169L129 297Z" fill="#ffdd09" stroke="#ffdd09"></path><path d="M900 127L736 0L680 132Z" fill="#fe9f04" stroke="#fe9f04"></path><path d="M680 132L736 0L551 0Z" fill="#ffdd09" stroke="#ffdd09"></path><path d="M568 466L693 448L587 349Z" fill="#fd9808" stroke="#fd9808"></path><path d="M129 297L162 491L365 494Z" fill="#fea601" stroke="#fea601"></path><path d="M136 0L0 169L181 106Z" fill="#ffac00" stroke="#ffac00"></path><path d="M129 297L0 495L162 491Z" fill="#ffba00" stroke="#ffba00"></path><path d="M365 494L529 600L568 466Z" fill="#ffba00" stroke="#ffba00"></path><path d="M568 466L721 600L693 448Z" fill="#fd9808" stroke="#fd9808"></path><path d="M203 600L373 600L365 494Z" fill="#ffc800" stroke="#ffc800"></path><path d="M373 600L529 600L365 494Z" fill="#fd9808" stroke="#fd9808"></path><path d="M0 169L0 310L129 297Z" fill="#ffc800" stroke="#ffc800"></path><path d="M136 0L0 0L0 169Z" fill="#ffd603" stroke="#ffd603"></path><path d="M900 301L900 127L680 132Z" fill="#fd9808" stroke="#fd9808"></path><path d="M900 301L680 132L719 339Z" fill="#ffc800" stroke="#ffc800"></path><path d="M0 600L203 600L162 491Z" fill="#ffc800" stroke="#ffc800"></path><path d="M162 491L203 600L365 494Z" fill="#ffd603" stroke="#ffd603"></path><path d="M900 474L719 339L693 448Z" fill="#ffba00" stroke="#ffba00"></path><path d="M900 474L900 301L719 339Z" fill="#fe9f04" stroke="#fe9f04"></path><path d="M900 127L900 0L736 0Z" fill="#ffd603" stroke="#ffd603"></path><path d="M529 600L721 600L568 466Z" fill="#ffba00" stroke="#ffba00"></path><path d="M0 310L0 495L129 297Z" fill="#ffd603" stroke="#ffd603"></path><path d="M721 600L900 474L693 448Z" fill="#ffba00" stroke="#ffba00"></path><path d="M0 495L0 600L162 491Z" fill="#ffd603" stroke="#ffd603"></path><path d="M721 600L900 600L900 474Z" fill="#fe9f04" stroke="#fe9f04"></path></g></svg>